<svg width="94" height="44" viewBox="0 0 94 44" fill="none" xmlns="http://www.w3.org/2000/svg">
<path d="M13.2584 43.838C11.8579 43.838 10.5818 43.6021 9.43028 43.1302C8.30985 42.6898 7.34506 42.0606 6.53584 41.2426C5.75776 40.4562 5.15086 39.5124 4.71514 38.4113C4.31054 37.3103 4.10824 36.0991 4.10824 34.7778C4.10824 33.4566 4.31054 32.2454 4.71514 31.1443C5.15086 30.0433 5.75776 29.0995 6.53584 28.313C7.34506 27.4951 8.30985 26.8659 9.43028 26.4255C10.5818 25.9536 11.8579 25.7177 13.2584 25.7177H34.1264C35.5892 25.7177 36.8808 25.9536 38.0012 26.4255C39.1528 26.8659 40.1176 27.4951 40.8957 28.313C41.6737 29.0995 42.2651 30.0433 42.6697 31.1443C43.0743 32.2454 43.2766 33.4566 43.2766 34.7778C43.2766 36.0991 43.0743 37.3103 42.6697 38.4113C42.2651 39.5439 41.6737 40.5034 40.8957 41.2898C40.1176 42.1078 39.1528 42.737 38.0012 43.1774C36.8808 43.6178 35.5892 43.838 34.1264 43.838H13.2584ZM28.2908 0.707823V23.0279H7.42284C6.73816 23.0279 6.16236 22.7763 5.69552 22.2729L3.08118 19.4888C2.61433 18.9855 2.38091 18.4035 2.38091 17.7428V5.85136L0 0.707823H12.1847V4.34134H18.4871V0.707823H28.2908ZM42.1095 8.11638H46.9647V16.3744H42.1095V24.302H31.8389V5.14353L29.458 0H42.1095V8.11638ZM31.0919 36.2879C31.6832 36.2879 32.1501 36.162 32.4925 35.9104C32.8348 35.6272 33.006 35.2497 33.006 34.7778C33.006 34.3059 32.8348 33.9442 32.4925 33.6925C32.1501 33.4094 31.6832 33.2678 31.0919 33.2678H16.2929C15.7016 33.2678 15.2347 33.4094 14.8924 33.6925C14.55 33.9442 14.3788 34.3059 14.3788 34.7778C14.3788 35.2497 14.55 35.6272 14.8924 35.9104C15.2347 36.162 15.7016 36.2879 16.2929 36.2879H31.0919ZM18.4871 11.8915H12.1847V15.4778H18.4871V11.8915ZM46.5445 24.0189L51.3063 8.96577H47.5249V0.707823H78.3833V8.96577H71.334L70.587 11.3724L76.656 12.1746L79.3637 24.0189H70.0735L68.5329 17.8372L66.5721 24.0189H57.7488L58.4491 21.7538L56.5817 20.1022L55.3679 24.0189H46.5445ZM89.7277 43.838H79.4571V34.9666H51.4931V26.7086H89.7277V43.838ZM89.7277 7.88044H93.6492V16.1384H89.7277V25.293H79.9239V0H89.7277V7.88044ZM59.2894 11.6083L61.1568 13.2127L62.5106 8.96577H60.1297L59.2894 11.6083Z" fill="#FF9026"/>
</svg>
