<svg width="24" height="24" viewBox="0 0 24 24" fill="none" xmlns="http://www.w3.org/2000/svg">
<path fill-rule="evenodd" clip-rule="evenodd" d="M10.284 1.4061C10.8225 1.15974 11.4078 1.03223 12 1.03223C12.5922 1.03223 13.1775 1.15974 13.716 1.4061C17.599 3.1841 20.4915 5.7271 21.8845 7.0991C22.6355 7.8386 23.037 8.8246 23.0935 9.8421C23.1625 11.0956 23.25 13.1286 23.25 15.4216C23.25 17.0396 23.2065 18.5276 23.1565 19.7036C23.1201 20.6071 22.7424 21.4632 22.0996 22.0992C21.4569 22.7351 20.5968 23.1037 19.693 23.1306C17.954 23.1906 15.3695 23.2501 12 23.2501C8.6305 23.2501 6.046 23.1901 4.307 23.1306C3.40317 23.1037 2.54314 22.7351 1.90038 22.0992C1.25761 21.4632 0.879928 20.6071 0.8435 19.7036C0.782366 18.2771 0.751193 16.8494 0.75 15.4216C0.75 13.1286 0.8375 11.0956 0.9065 9.8421C0.963 8.8246 1.3645 7.8386 2.1155 7.0991C3.5085 5.7271 6.4015 3.1841 10.284 1.4061ZM8 18.0001C7.73478 18.0001 7.48043 18.1055 7.29289 18.293C7.10536 18.4805 7 18.7349 7 19.0001C7 19.2653 7.10536 19.5197 7.29289 19.7072C7.48043 19.8947 7.73478 20.0001 8 20.0001H16C16.2652 20.0001 16.5196 19.8947 16.7071 19.7072C16.8946 19.5197 17 19.2653 17 19.0001C17 18.7349 16.8946 18.4805 16.7071 18.293C16.5196 18.1055 16.2652 18.0001 16 18.0001H8Z" fill="black"/>
</svg>
