<svg width="28" height="28" viewBox="0 0 28 28" fill="none" xmlns="http://www.w3.org/2000/svg">
<path d="M18.8749 26.2501H14V23.7503C14.0008 23.5191 13.9547 23.2902 13.8646 23.0773C13.7744 22.8644 13.6421 22.672 13.4756 22.5116C13.0561 22.0982 12.4458 21.8658 11.8038 21.8751C11.2326 21.8804 10.6817 22.0871 10.2479 22.4586C9.96354 22.7101 9.62502 23.1455 9.62502 23.794V26.2501H4.79174C3.98529 26.2492 3.21213 25.9285 2.64188 25.3582C2.07164 24.788 1.75089 24.0148 1.75002 23.2083V18.3751H4.24979C4.75073 18.3751 5.23799 18.1607 5.6219 17.7735C5.83548 17.5582 6.00438 17.3028 6.11889 17.022C6.23339 16.7412 6.29123 16.4405 6.28909 16.1373C6.27268 14.9784 5.31893 14.0001 4.20604 14.0001H1.75002V9.11428C1.74845 8.71609 1.82776 8.32173 1.98315 7.95511C2.13854 7.58849 2.36677 7.25725 2.65401 6.98147C3.22764 6.42816 3.99475 6.12084 4.79174 6.12506H8.25018V5.33319C8.25018 4.85728 8.34497 4.38614 8.52902 3.94726C8.71307 3.50838 8.98269 3.11056 9.32214 2.77701C9.6616 2.44346 10.0641 2.18086 10.5061 2.00454C10.9482 1.82822 11.4209 1.74171 11.8967 1.75006C13.8376 1.78397 15.4164 3.41147 15.4164 5.37749V6.12506H18.8749C19.27 6.12082 19.6621 6.19552 20.028 6.34479C20.3939 6.49406 20.7263 6.71489 21.0058 6.99433C21.2852 7.27377 21.506 7.60619 21.6553 7.97211C21.8046 8.33802 21.8793 8.73005 21.875 9.12522V12.5837H22.6221C24.6225 12.5837 26.25 14.1696 26.25 16.1187C26.25 18.1208 24.6428 19.7499 22.6669 19.7499H21.875V23.2083C21.875 24.8856 20.5292 26.2501 18.8749 26.2501Z" fill="black"/>
</svg>
