<svg width="234" height="182" viewBox="0 0 234 182" fill="none" xmlns="http://www.w3.org/2000/svg">
<mask id="path-1-outside-1_405_3110" maskUnits="userSpaceOnUse" x="-8.08829" y="-16.6012" width="148.176" height="165.073" fill="black">
<rect fill="white" x="-8.08829" y="-16.6012" width="148.176" height="165.073"/>
<path d="M48.5163 138.919C43.2861 140.693 37.6081 137.891 35.8341 132.661L10.1375 56.9C8.36351 51.6698 11.1653 45.9918 16.3955 44.2178L42.9147 35.223C43.8244 34.9145 43.8522 33.5241 43.0166 33.0502C39.9282 31.2987 37.4464 28.4505 36.2162 24.8235C33.5552 16.9783 37.758 8.46127 45.6032 5.8003C53.4485 3.13932 61.9655 7.34203 64.6265 15.1873C65.8567 18.8142 65.6197 22.5846 64.2342 25.8536C63.8594 26.7381 64.7273 27.8246 65.637 27.516L92.1562 18.5212C97.3864 16.7472 103.064 19.549 104.838 24.7792L112.892 48.5223C113.134 49.2357 112.527 49.9585 111.775 49.9222C109.949 49.834 108.076 50.0801 106.239 50.7029C98.3942 53.3639 94.1915 61.8809 96.8525 69.7261C99.5135 77.5714 108.03 81.7741 115.876 79.1132C117.712 78.4904 119.348 77.5467 120.744 76.366C121.319 75.8795 122.24 76.0843 122.482 76.7977L130.535 100.54C132.309 105.77 129.507 111.448 124.277 113.222L48.5163 138.919Z"/>
</mask>
<path d="M48.5163 138.919C43.2861 140.693 37.6081 137.891 35.8341 132.661L10.1375 56.9C8.36351 51.6698 11.1653 45.9918 16.3955 44.2178L42.9147 35.223C43.8244 34.9145 43.8522 33.5241 43.0166 33.0502C39.9282 31.2987 37.4464 28.4505 36.2162 24.8235C33.5552 16.9783 37.758 8.46127 45.6032 5.8003C53.4485 3.13932 61.9655 7.34203 64.6265 15.1873C65.8567 18.8142 65.6197 22.5846 64.2342 25.8536C63.8594 26.7381 64.7273 27.8246 65.637 27.516L92.1562 18.5212C97.3864 16.7472 103.064 19.549 104.838 24.7792L112.892 48.5223C113.134 49.2357 112.527 49.9585 111.775 49.9222C109.949 49.834 108.076 50.0801 106.239 50.7029C98.3942 53.3639 94.1915 61.8809 96.8525 69.7261C99.5135 77.5714 108.03 81.7741 115.876 79.1132C117.712 78.4904 119.348 77.5467 120.744 76.366C121.319 75.8795 122.24 76.0843 122.482 76.7977L130.535 100.54C132.309 105.77 129.507 111.448 124.277 113.222L48.5163 138.919Z" fill="#FF9026"/>
<path d="M48.5163 138.919L50.1223 143.654V143.654L48.5163 138.919ZM35.8341 132.661L31.0991 134.267L31.0991 134.267L35.8341 132.661ZM10.1375 56.9L5.40244 58.5061V58.5061L10.1375 56.9ZM16.3955 44.2178L14.7895 39.4828L16.3955 44.2178ZM36.2162 24.8235L31.4812 26.4296V26.4296L36.2162 24.8235ZM64.6265 15.1873L69.3615 13.5813L64.6265 15.1873ZM92.1562 18.5212L90.5502 13.7862L90.5502 13.7862L92.1562 18.5212ZM104.838 24.7792L109.573 23.1732L104.838 24.7792ZM106.239 50.7029L107.846 55.4379L106.239 50.7029ZM115.876 79.1132L117.482 83.8482V83.8482L115.876 79.1132ZM130.535 100.54L135.27 98.9339L135.27 98.9339L130.535 100.54ZM124.277 113.222L125.883 117.957L125.883 117.957L124.277 113.222ZM120.744 76.366L117.515 72.5487L120.744 76.366ZM111.775 49.9222L112.016 44.928L111.775 49.9222ZM64.2342 25.8536L59.6307 23.9025L64.2342 25.8536ZM65.637 27.516L64.031 22.781L65.637 27.516ZM43.0166 33.0502L40.55 37.3995L43.0166 33.0502ZM48.5163 138.919L46.9102 134.184C44.2952 135.071 41.4562 133.67 40.5692 131.055L35.8341 132.661L31.0991 134.267C33.76 142.112 42.277 146.315 50.1223 143.654L48.5163 138.919ZM35.8341 132.661L40.5692 131.055L14.8725 55.294L10.1375 56.9L5.40244 58.5061L31.0991 134.267L35.8341 132.661ZM10.1375 56.9L14.8725 55.294C13.9855 52.6789 15.3864 49.8399 18.0015 48.9529L16.3955 44.2178L14.7895 39.4828C6.94418 42.1438 2.74147 50.6608 5.40244 58.5061L10.1375 56.9ZM16.3955 44.2178L18.0015 48.9529L44.5207 39.9581L42.9147 35.223L41.3086 30.488L14.7895 39.4828L16.3955 44.2178ZM43.0166 33.0502L45.4832 28.701C43.4205 27.5311 41.7724 25.6384 40.9513 23.2175L36.2162 24.8235L31.4812 26.4296C33.1204 31.2625 36.436 35.0662 40.55 37.3995L43.0166 33.0502ZM36.2162 24.8235L40.9513 23.2175C39.1773 17.9873 41.9791 12.3093 47.2093 10.5353L45.6032 5.8003L43.9972 1.06525C33.5368 4.61322 27.9332 15.9692 31.4812 26.4296L36.2162 24.8235ZM45.6032 5.8003L47.2093 10.5353C52.4395 8.76136 58.1175 11.5632 59.8914 16.7933L64.6265 15.1873L69.3615 13.5813C65.8136 3.1209 54.4576 -2.48271 43.9972 1.06525L45.6032 5.8003ZM64.6265 15.1873L59.8914 16.7933C60.7126 19.2143 60.556 21.7191 59.6307 23.9025L64.2342 25.8536L68.8378 27.8048C70.6835 23.4501 71.0008 18.4142 69.3615 13.5813L64.6265 15.1873ZM65.637 27.516L67.243 32.2511L93.7622 23.2563L92.1562 18.5212L90.5502 13.7862L64.031 22.781L65.637 27.516ZM92.1562 18.5212L93.7622 23.2563C96.3773 22.3693 99.2163 23.7702 100.103 26.3853L104.838 24.7792L109.573 23.1732C106.912 15.3279 98.3954 11.1252 90.5502 13.7862L92.1562 18.5212ZM104.838 24.7792L100.103 26.3853L108.157 50.1283L112.892 48.5223L117.627 46.9163L109.573 23.1732L104.838 24.7792ZM111.775 49.9222L112.016 44.928C109.574 44.8101 107.074 45.14 104.633 45.9679L106.239 50.7029L107.846 55.4379C109.077 55.0202 110.323 54.8579 111.533 54.9164L111.775 49.9222ZM106.239 50.7029L104.633 45.9679C94.1731 49.5158 88.5695 60.8718 92.1174 71.3322L96.8525 69.7261L101.588 68.1201C99.8135 62.8899 102.615 57.2119 107.846 55.4379L106.239 50.7029ZM96.8525 69.7261L92.1174 71.3322C95.6654 81.7926 107.021 87.3962 117.482 83.8482L115.876 79.1132L114.27 74.3781C109.04 76.1521 103.362 73.3503 101.588 68.1201L96.8525 69.7261ZM115.876 79.1132L117.482 83.8482C119.922 83.0207 122.107 81.7623 123.973 80.1834L120.744 76.366L117.515 72.5487C116.59 73.3312 115.502 73.9601 114.27 74.3781L115.876 79.1132ZM122.482 76.7977L117.747 78.4038L125.8 102.146L130.535 100.54L135.27 98.9339L127.217 75.1917L122.482 76.7977ZM130.535 100.54L125.8 102.146C126.687 104.761 125.286 107.6 122.671 108.487L124.277 113.222L125.883 117.957C133.728 115.296 137.931 106.779 135.27 98.9339L130.535 100.54ZM124.277 113.222L122.671 108.487L46.9102 134.184L48.5163 138.919L50.1223 143.654L125.883 117.957L124.277 113.222ZM120.744 76.366L123.973 80.1834C122.185 81.6961 118.772 81.427 117.747 78.4038L122.482 76.7977L127.217 75.1917C125.708 70.7417 120.453 70.0629 117.515 72.5487L120.744 76.366ZM112.892 48.5223L108.157 50.1283C107.131 47.1052 109.676 44.8149 112.016 44.928L111.775 49.9222L111.533 54.9164C115.379 55.1021 119.136 51.3662 117.627 46.9163L112.892 48.5223ZM64.2342 25.8536L59.6307 23.9025C58.5793 26.383 59.3668 28.8248 60.599 30.3165C61.8555 31.8376 64.3496 33.2325 67.243 32.2511L65.637 27.516L64.031 22.781C66.0147 22.1081 67.6201 23.1141 68.3088 23.9479C68.9733 24.7524 69.5143 26.2087 68.8378 27.8048L64.2342 25.8536ZM42.9147 35.223L44.5207 39.9581C47.4142 38.9767 48.545 36.3522 48.6168 34.3806C48.6872 32.4471 47.8267 30.0301 45.4832 28.701L43.0166 33.0502L40.55 37.3995C39.0421 36.5443 38.5855 35.0594 38.6234 34.0167C38.6628 32.9358 39.3249 31.1608 41.3086 30.488L42.9147 35.223Z" fill="white" mask="url(#path-1-outside-1_405_3110)"/>
<mask id="path-3-outside-2_405_3110" maskUnits="userSpaceOnUse" x="57.9126" y="21.0887" width="168.411" height="171.583" fill="black">
<rect fill="white" x="57.9126" y="21.0887" width="168.411" height="171.583"/>
<path d="M134.578 176.28C129.335 178.019 123.677 175.178 121.938 169.936L114.048 146.139C113.811 145.424 112.891 145.213 112.313 145.696C110.909 146.867 109.266 147.799 107.426 148.41C99.5625 151.017 91.0744 146.756 88.467 138.893C85.8596 131.03 90.1203 122.542 97.9836 119.934C99.824 119.324 101.699 119.091 103.524 119.191C104.276 119.233 104.888 118.514 104.65 117.799L96.7594 94.0016C95.0212 88.7595 97.8617 83.1007 103.104 81.3625L129.684 72.5489C130.596 72.2465 130.633 70.8564 129.801 70.3768C126.724 68.6042 124.262 65.7391 123.056 62.1039C120.449 54.2407 124.71 45.7525 132.573 43.1452C140.436 40.5378 148.924 44.7985 151.532 52.6618C152.737 56.297 152.475 60.0657 151.067 63.3252C150.686 64.207 151.546 65.2995 152.458 64.9971L179.038 56.1835C184.28 54.4452 189.939 57.2857 191.677 62.5279L216.856 138.462C218.595 143.704 215.754 149.363 210.512 151.101L134.578 176.28Z"/>
</mask>
<path d="M134.578 176.28C129.335 178.019 123.677 175.178 121.938 169.936L114.048 146.139C113.811 145.424 112.891 145.213 112.313 145.696C110.909 146.867 109.266 147.799 107.426 148.41C99.5625 151.017 91.0744 146.756 88.467 138.893C85.8596 131.03 90.1203 122.542 97.9836 119.934C99.824 119.324 101.699 119.091 103.524 119.191C104.276 119.233 104.888 118.514 104.65 117.799L96.7594 94.0016C95.0212 88.7595 97.8617 83.1007 103.104 81.3625L129.684 72.5489C130.596 72.2465 130.633 70.8564 129.801 70.3768C126.724 68.6042 124.262 65.7391 123.056 62.1039C120.449 54.2407 124.71 45.7525 132.573 43.1452C140.436 40.5378 148.924 44.7985 151.532 52.6618C152.737 56.297 152.475 60.0657 151.067 63.3252C150.686 64.207 151.546 65.2995 152.458 64.9971L179.038 56.1835C184.28 54.4452 189.939 57.2857 191.677 62.5279L216.856 138.462C218.595 143.704 215.754 149.363 210.512 151.101L134.578 176.28Z" fill="#3BB5AA"/>
<path d="M134.578 176.28L136.151 181.026V181.026L134.578 176.28ZM121.938 169.936L117.193 171.51L117.193 171.51L121.938 169.936ZM107.426 148.41L108.999 153.156V153.156L107.426 148.41ZM97.9836 119.934L99.5573 124.68L97.9836 119.934ZM96.7594 94.0016L92.0135 95.5753V95.5753L96.7594 94.0016ZM103.104 81.3625L101.53 76.6166L103.104 81.3625ZM123.056 62.1039L118.311 63.6776V63.6776L123.056 62.1039ZM151.532 52.6618L156.278 51.0881L151.532 52.6618ZM179.038 56.1835L177.464 51.4376L177.464 51.4376L179.038 56.1835ZM191.677 62.5279L196.423 60.9542L191.677 62.5279ZM216.856 138.462L221.602 136.889L221.602 136.889L216.856 138.462ZM210.512 151.101L212.086 155.847L212.086 155.847L210.512 151.101ZM151.067 63.3252L146.477 61.3426L151.067 63.3252ZM129.684 72.5489L128.11 67.803L129.684 72.5489ZM129.801 70.3768L132.297 66.0445L129.801 70.3768ZM103.524 119.191L103.249 124.184L103.524 119.191ZM104.65 117.799L99.9045 119.373L104.65 117.799ZM112.313 145.696L115.516 149.535L112.313 145.696ZM134.578 176.28L133.004 171.534C130.383 172.404 127.553 170.983 126.684 168.362L121.938 169.936L117.193 171.51C119.8 179.373 128.288 183.634 136.151 181.026L134.578 176.28ZM121.938 169.936L126.684 168.362L118.794 144.566L114.048 146.139L109.302 147.713L117.193 171.51L121.938 169.936ZM112.313 145.696L109.11 141.857C108.179 142.633 107.087 143.254 105.852 143.664L107.426 148.41L108.999 153.156C111.445 152.345 113.639 151.101 115.516 149.535L112.313 145.696ZM107.426 148.41L105.852 143.664C100.61 145.402 94.9511 142.562 93.2129 137.319L88.467 138.893L83.7211 140.467C87.1976 150.951 98.5151 156.632 108.999 153.156L107.426 148.41ZM88.467 138.893L93.2129 137.319C91.4746 132.077 94.3151 126.418 99.5573 124.68L97.9836 119.934L96.4099 115.188C85.9256 118.665 80.2446 129.982 83.7211 140.467L88.467 138.893ZM97.9836 119.934L99.5573 124.68C100.792 124.271 102.038 124.117 103.249 124.184L103.524 119.191L103.799 114.199C101.359 114.064 98.8563 114.377 96.4099 115.188L97.9836 119.934ZM104.65 117.799L109.396 116.225L101.505 92.428L96.7594 94.0016L92.0135 95.5753L99.9045 119.373L104.65 117.799ZM96.7594 94.0016L101.505 92.428C100.636 89.8069 102.056 86.9775 104.678 86.1084L103.104 81.3625L101.53 76.6166C93.6669 79.224 89.4062 87.7121 92.0135 95.5753L96.7594 94.0016ZM103.104 81.3625L104.678 86.1084L131.257 77.2948L129.684 72.5489L128.11 67.803L101.53 76.6166L103.104 81.3625ZM129.801 70.3768L132.297 66.0445C130.242 64.8606 128.607 62.9567 127.802 60.5302L123.056 62.1039L118.311 63.6776C119.917 68.5216 123.206 72.3479 127.304 74.7091L129.801 70.3768ZM123.056 62.1039L127.802 60.5302C126.064 55.288 128.905 49.6293 134.147 47.8911L132.573 43.1452L130.999 38.3993C120.515 41.8758 114.834 53.1933 118.311 63.6776L123.056 62.1039ZM132.573 43.1452L134.147 47.8911C139.389 46.1528 145.048 48.9933 146.786 54.2355L151.532 52.6618L156.278 51.0881C152.801 40.6038 141.484 34.9228 130.999 38.3993L132.573 43.1452ZM151.532 52.6618L146.786 54.2355C147.59 56.6619 147.417 59.1656 146.477 61.3426L151.067 63.3252L155.657 65.3077C157.532 60.9657 157.884 55.9321 156.278 51.0881L151.532 52.6618ZM152.458 64.9971L154.032 69.743L180.612 60.9294L179.038 56.1835L177.464 51.4376L150.884 60.2512L152.458 64.9971ZM179.038 56.1835L180.612 60.9294C183.233 60.0603 186.062 61.4805 186.931 64.1016L191.677 62.5279L196.423 60.9542C193.816 53.091 185.328 48.8302 177.464 51.4376L179.038 56.1835ZM191.677 62.5279L186.931 64.1016L212.11 140.036L216.856 138.462L221.602 136.889L196.423 60.9542L191.677 62.5279ZM216.856 138.462L212.11 140.036C212.98 142.657 211.559 145.486 208.938 146.355L210.512 151.101L212.086 155.847C219.949 153.24 224.21 144.752 221.602 136.889L216.856 138.462ZM210.512 151.101L208.938 146.355L133.004 171.534L134.578 176.28L136.151 181.026L212.086 155.847L210.512 151.101ZM151.067 63.3252L146.477 61.3426C145.408 63.816 146.179 66.2631 147.401 67.7631C148.647 69.2927 151.132 70.7046 154.032 69.743L152.458 64.9971L150.884 60.2512C152.873 59.5919 154.471 60.6088 155.154 61.4473C155.813 62.2563 156.344 63.7162 155.657 65.3077L151.067 63.3252ZM129.684 72.5489L131.257 77.2948C134.158 76.3331 135.306 73.7164 135.392 71.7454C135.475 69.8124 134.631 67.3896 132.297 66.0445L129.801 70.3768L127.304 74.7091C125.802 73.8437 125.356 72.3557 125.401 71.3132C125.448 70.2327 126.122 68.4623 128.11 67.803L129.684 72.5489ZM103.524 119.191L103.249 124.184C107.092 124.396 110.875 120.686 109.396 116.225L104.65 117.799L99.9045 119.373C98.8998 116.343 101.46 114.07 103.799 114.199L103.524 119.191ZM114.048 146.139L118.794 144.566C117.315 140.105 112.065 139.391 109.11 141.857L112.313 145.696L115.516 149.535C113.717 151.036 110.307 150.743 109.302 147.713L114.048 146.139Z" fill="white" mask="url(#path-3-outside-2_405_3110)"/>
</svg>
