<svg width="80" height="80" viewBox="0 0 80 80" fill="none" xmlns="http://www.w3.org/2000/svg">
<mask id="mask0_355_1735" style="mask-type:alpha" maskUnits="userSpaceOnUse" x="0" y="0" width="80" height="80">
<circle cx="40" cy="40" r="40" fill="#FFF4E9"/>
</mask>
<g mask="url(#mask0_355_1735)">
<circle cx="40" cy="40" r="40" fill="#FFF4E9"/>
<path d="M25.8385 12.7148C28.5409 11.7498 31.51 11.8541 34.1381 13.0061C36.7662 14.1581 38.8548 16.2709 39.9765 18.9122L40.216 19.5274L41.4768 23.0591L52.0719 19.2767C53.8537 18.6399 55.8104 18.7002 57.5496 19.4454C59.2888 20.1907 60.6821 21.5657 61.4501 23.295L61.6569 23.8185L65.4393 34.4135L68.971 33.1527C71.728 32.1655 74.7613 32.2922 77.4263 33.5059C80.0914 34.7196 82.1781 36.9246 83.2432 39.6524C84.3083 42.3803 84.2677 45.4159 83.1302 48.1143C81.9926 50.8127 79.8477 52.9612 77.1512 54.1033L76.5359 54.3429L73.0042 55.6037L76.7866 66.1988C77.4234 67.9806 77.3631 69.9372 76.6179 71.6764C75.8727 73.4157 74.4976 74.809 72.7683 75.577L72.2449 75.7838L61.6498 79.5662C59.868 80.2029 57.9114 80.1427 56.1721 79.3975C54.4329 78.6522 53.0396 77.2772 52.2716 75.5479L52.0648 75.0244L50.804 71.4928C50.4816 70.593 49.8279 69.8502 48.9762 69.4163C48.1246 68.9823 47.1395 68.8899 46.222 69.158C45.3046 69.426 44.5241 70.0343 44.0401 70.8584C43.5561 71.6826 43.405 72.6605 43.6178 73.5923L43.7406 74.0144L45.0014 77.5461C45.6381 79.3279 45.5779 81.2845 44.8327 83.0237C44.0874 84.763 42.7124 86.1563 40.9831 86.9243L40.4596 87.1311L29.8646 90.9135C28.0828 91.5502 26.1261 91.49 24.3869 90.7448C22.6477 89.9995 21.2544 88.6245 20.4863 86.8952L20.2796 86.3717L16.4971 75.7767C15.8604 73.9949 15.9207 72.0382 16.6659 70.299C17.4111 68.5598 18.7862 67.1665 20.5154 66.3984L21.0389 66.1917L24.5706 64.9308C25.4704 64.6085 26.2131 63.9547 26.6471 63.1031C27.081 62.2515 27.1734 61.2663 26.9054 60.3489C26.6373 59.4314 26.0291 58.651 25.2049 58.167C24.3807 57.6829 23.4028 57.5319 22.471 57.7447L22.049 57.8675L18.5173 59.1283C16.7355 59.765 14.7788 59.7047 13.0396 58.9595C11.3004 58.2143 9.90707 56.8392 9.13904 55.11L8.93226 54.5865L5.14983 43.9914C4.51309 42.2096 4.57337 40.253 5.31858 38.5138C6.06379 36.7745 7.43886 35.3812 9.16814 34.6132L9.69159 34.4064L20.2867 30.624L19.0259 27.0923C18.0227 24.2823 18.1769 21.1889 19.4545 18.4926C20.7321 15.7963 23.0285 13.7179 25.8385 12.7148Z" fill="#FF9026"/>
<ellipse cx="27.8361" cy="40.7615" rx="6" ry="6.5" transform="rotate(-19.6465 27.8361 40.7615)" fill="white"/>
<ellipse cx="28.286" cy="40.7778" rx="4.335" ry="4.5" transform="rotate(-19.6465 28.286 40.7778)" fill="#1A1A1A"/>
<ellipse cx="40.0793" cy="36.3907" rx="6" ry="6.5" transform="rotate(-19.6465 40.0793 36.3907)" fill="white"/>
<ellipse cx="40.0585" cy="36.5752" rx="4.335" ry="4.5" transform="rotate(-19.6465 40.0585 36.5752)" fill="#1A1A1A"/>
</g>
</svg>
